<svg width="27" height="29" viewBox="0 0 27 29" fill="none" xmlns="http://www.w3.org/2000/svg">
<path d="M13.5 22.0952C12.638 22.0952 11.8114 21.8043 11.2019 21.2863C10.5924 20.7683 10.25 20.0658 10.25 19.3333C10.25 17.8005 11.6962 16.5714 13.5 16.5714C14.362 16.5714 15.1886 16.8624 15.7981 17.3804C16.4076 17.8983 16.75 18.6008 16.75 19.3333C16.75 20.0658 16.4076 20.7683 15.7981 21.2863C15.1886 21.8043 14.362 22.0952 13.5 22.0952ZM23.25 26.2381V12.4286H3.75V26.2381H23.25ZM23.25 9.66667C24.112 9.66667 24.9386 9.95765 25.5481 10.4756C26.1576 10.9936 26.5 11.6961 26.5 12.4286V26.2381C26.5 26.9706 26.1576 27.6731 25.5481 28.1911C24.9386 28.709 24.112 29 23.25 29H3.75C2.88805 29 2.0614 28.709 1.4519 28.1911C0.84241 27.6731 0.5 26.9706 0.5 26.2381V12.4286C0.5 10.8957 1.94625 9.66667 3.75 9.66667H5.375V6.90476C5.375 5.07351 6.23102 3.31725 7.75476 2.02236C9.27849 0.727464 11.3451 0 13.5 0C14.567 0 15.6235 0.178597 16.6093 0.525594C17.5951 0.87259 18.4908 1.38119 19.2452 2.02236C19.9997 2.66352 20.5982 3.4247 21.0065 4.26242C21.4148 5.10015 21.625 5.99802 21.625 6.90476V9.66667H23.25ZM13.5 2.7619C12.2071 2.7619 10.9671 3.19838 10.0529 3.97532C9.13861 4.75226 8.625 5.80601 8.625 6.90476V9.66667H18.375V6.90476C18.375 5.80601 17.8614 4.75226 16.9471 3.97532C16.0329 3.19838 14.7929 2.7619 13.5 2.7619Z" fill="#2A5C66"/>
</svg>
