<svg width="29" height="29" viewBox="0 0 29 29" fill="none" xmlns="http://www.w3.org/2000/svg">
<path d="M14.5 14.5C12.5062 14.5 10.7995 13.7901 9.37969 12.3703C7.95989 10.9505 7.25 9.24375 7.25 7.25C7.25 5.25625 7.95989 3.54948 9.37969 2.12969C10.7995 0.709896 12.5062 0 14.5 0C16.4937 0 18.2005 0.709896 19.6203 2.12969C21.0401 3.54948 21.75 5.25625 21.75 7.25C21.75 9.24375 21.0401 10.9505 19.6203 12.3703C18.2005 13.7901 16.4937 14.5 14.5 14.5ZM0 29V23.925C0 22.8979 0.264625 21.9542 0.793875 21.0939C1.32313 20.2335 2.02517 19.5762 2.9 19.1219C4.77292 18.1854 6.67604 17.4834 8.60937 17.0157C10.5427 16.5481 12.5062 16.3137 14.5 16.3125C16.4937 16.3113 18.4573 16.5457 20.3906 17.0157C22.324 17.4858 24.2271 18.1878 26.1 19.1219C26.976 19.575 27.6787 20.2323 28.2079 21.0939C28.7372 21.9554 29.0012 22.8991 29 23.925V29H0ZM3.625 25.375H25.375V23.925C25.375 23.5927 25.2922 23.2906 25.1267 23.0188C24.9611 22.7469 24.7418 22.5354 24.4687 22.3844C22.8375 21.5688 21.1911 20.9573 19.5297 20.5501C17.8682 20.1429 16.1917 19.9387 14.5 19.9375C12.8083 19.9363 11.1318 20.1405 9.47031 20.5501C7.80885 20.9598 6.1625 21.5712 4.53125 22.3844C4.25937 22.5354 4.04006 22.7469 3.87331 23.0188C3.70656 23.2906 3.62379 23.5927 3.625 23.925V25.375ZM14.5 10.875C15.4969 10.875 16.3506 10.5204 17.0611 9.81106C17.7716 9.10177 18.1262 8.24808 18.125 7.25C18.1238 6.25192 17.7691 5.39883 17.0611 4.69075C16.353 3.98267 15.4993 3.62742 14.5 3.625C13.5007 3.62258 12.6476 3.97783 11.9407 4.69075C11.2339 5.40367 10.8786 6.25675 10.875 7.25C10.8714 8.24325 11.2266 9.09694 11.9407 9.81106C12.6549 10.5252 13.508 10.8798 14.5 10.875Z" fill="#2A5C66"/>
</svg>
